<svg xmlns="http://www.w3.org/2000/svg" viewBox="0 0 200 200" fill="none">
  <rect width="200" height="200" rx="16" fill="#f8fafc"/>
  <path d="M72 48h56c4 0 8 4 8 8v88c0 12-10 22-22 22H86c-12 0-22-10-22-22V56c0-4 4-8 8-8z" fill="#e2e8f0" stroke="#94a3b8" stroke-width="2"/>
  <path d="M128 72h16c6 0 10 4 10 10v40c0 14-12 26-26 26h-6" stroke="#64748b" stroke-width="3" stroke-linecap="round"/>
  <rect x="78" y="88" width="44" height="52" rx="4" fill="#3b2517" opacity="0.85"/>
  <rect x="82" y="92" width="36" height="8" rx="2" fill="#1a6fd4" opacity="0.5"/>
  <circle cx="100" cy="110" r="3" fill="#94a3b8" opacity="0.6"/>
  <circle cx="92" cy="118" r="2.5" fill="#94a3b8" opacity="0.5"/>
  <circle cx="108" cy="122" r="2" fill="#94a3b8" opacity="0.4"/>
</svg>
