<svg xmlns="http://www.w3.org/2000/svg" viewBox="0 0 200 200" fill="none">
  <rect width="200" height="200" rx="16" fill="#f8fafc"/>
  <path d="M70 52h60c4 0 8 4 8 8v80c0 10-8 18-18 18H80c-10 0-18-8-18-18V60c0-4 4-8 8-8z" fill="#fff" stroke="#cbd5e1" stroke-width="2"/>
  <path d="M128 68h14c6 0 10 4 10 10v36c0 12-10 22-22 22h-4" stroke="#94a3b8" stroke-width="3" stroke-linecap="round"/>
  <path d="M72 90h56v38c0 8-6 14-14 14H86c-8 0-14-6-14-14V90z" fill="#e8d5b7"/>
  <path d="M84 76c6-2 12-2 18 0 6 2 10 2 16 0" stroke="#f5deb3" stroke-width="4" stroke-linecap="round"/>
  <circle cx="100" cy="82" r="4" fill="#fff" opacity="0.8"/>
</svg>
